Coordinates
version=1
nRows=43
nColumns=12
inDegrees=yes

Units are S.I. units (second, meters, Newtons, ...)
Angles are in degrees

endheader
time	SC_y	SC_z	SC_x	AC_y	AC_z	AC_x	GH_y	GH_z	GH_yy	EL_x	PS_y
       0.0              -27.68          39.55          36.51           69.2         -13.47         -3.203         -53.91          1.182          138.9           18.6          35.25
  0.003608              -27.68          39.55          36.51           69.2         -13.47         -3.203          -53.9          1.183          138.9          18.61          35.25
  0.007216              -27.69          39.55          36.51           69.2         -13.46         -3.202         -53.89          1.184          138.9          18.62          35.26
   0.01082              -27.69          39.55          36.51          69.19         -13.46         -3.201         -53.88          1.185          138.9          18.63          35.27
   0.01443               -27.7          39.55          36.51          69.19         -13.46           -3.2         -53.88          1.187          138.9          18.64          35.27
   0.01804               -27.7          39.55          36.51          69.19         -13.46         -3.199         -53.87          1.188          138.8          18.65          35.28
   0.02165              -27.71          39.55          36.51          69.18         -13.46         -3.199         -53.86           1.19          138.8          18.66          35.29
   0.02526              -27.71          39.55          36.51          69.18         -13.46         -3.198         -53.85          1.191          138.8          18.67           35.3
   0.02887              -27.72          39.55          36.51          69.18         -13.46         -3.196         -53.83          1.193          138.8          18.69          35.31
   0.03247              -27.73          39.55          36.51          69.17         -13.46         -3.195         -53.82          1.195          138.8           18.7          35.32
   0.03608              -27.73          39.55          36.51          69.17         -13.46         -3.194         -53.81          1.197          138.8          18.72          35.33
   0.03969              -27.74          39.55          36.51          69.16         -13.45         -3.193          -53.8          1.199          138.7          18.73          35.34
    0.0433              -27.75          39.54          36.51          69.15         -13.45         -3.191         -53.78          1.201          138.7          18.75          35.35
   0.04691              -27.76          39.54          36.51          69.15         -13.45          -3.19         -53.76          1.204          138.7          18.77          35.36
   0.05051              -27.77          39.54          36.51          69.14         -13.45         -3.188         -53.75          1.207          138.7          18.79          35.38
   0.05412              -27.78          39.54          36.51          69.13         -13.45         -3.186         -53.73           1.21          138.6          18.82          35.39
   0.05773              -27.79          39.54           36.5          69.13         -13.44         -3.184         -53.71          1.213          138.6          18.84          35.41
   0.06134               -27.8          39.54           36.5          69.12         -13.44         -3.182         -53.68          1.217          138.6          18.87          35.43
   0.06495              -27.82          39.54           36.5          69.11         -13.44          -3.18         -53.66           1.22          138.5           18.9          35.45
   0.06856              -27.83          39.53           36.5           69.1         -13.44         -3.177         -53.63          1.225          138.5          18.93          35.47
   0.07216              -27.85          39.53           36.5          69.09         -13.43         -3.175          -53.6          1.229          138.4          18.96          35.49
   0.07577              -27.87          39.53           36.5          69.07         -13.43         -3.172         -53.57          1.234          138.4           19.0          35.52
   0.07938              -27.89          39.53           36.5          69.06         -13.42         -3.168         -53.53           1.24          138.3          19.05          35.54
   0.08299              -27.91          39.52           36.5          69.05         -13.42         -3.164         -53.49          1.246          138.3          19.09          35.58
    0.0866              -27.93          39.52           36.5          69.03         -13.41          -3.16         -53.45          1.253          138.2          19.15          35.61
    0.0902              -27.96          39.52           36.5          69.01         -13.41         -3.156          -53.4          1.261          138.1          19.21          35.65
   0.09381              -27.99          39.51           36.5          68.99          -13.4          -3.15         -53.34           1.27          138.1          19.27          35.69
   0.09742              -28.03          39.51           36.5          68.96          -13.4         -3.144         -53.28          1.279          138.0          19.35          35.74
     0.101              -28.07           39.5           36.5          68.94         -13.39         -3.138         -53.21           1.29          137.8          19.43           35.8
    0.1046              -28.11           39.5           36.5          68.91         -13.38          -3.13         -53.13          1.303          137.7          19.53          35.86
    0.1082              -28.16          39.49           36.5          68.87         -13.37         -3.122         -53.04          1.317          137.6          19.64          35.94
    0.1119              -28.22          39.48          36.49          68.83         -13.36         -3.112         -52.93          1.334          137.4          19.76          36.02
    0.1155              -28.29          39.48          36.49          68.79         -13.34           -3.1         -52.81          1.353          137.2           19.9          36.12
    0.1191              -28.37          39.47          36.49          68.73         -13.33         -3.087         -52.67          1.375          137.0          20.07          36.23
    0.1227              -28.46          39.45          36.49          68.67         -13.31         -3.072         -52.51            1.4          136.8          20.27          36.36
    0.1263              -28.57          39.44          36.49           68.6         -13.29         -3.053         -52.31          1.431          136.5           20.5          36.51
    0.1299              -28.69          39.42          36.48          68.51         -13.26         -3.032         -52.08          1.467          136.1          20.78          36.69
    0.1335              -28.85          39.41          36.48           68.4         -13.23         -3.006          -51.8           1.51          135.7          21.11          36.91
    0.1371              -29.04          39.38          36.48          68.28         -13.19         -2.974         -51.47          1.562          135.2          21.51          37.18
    0.1407              -29.26          39.35          36.47          68.12         -13.15         -2.936         -51.06          1.626          134.6          21.99           37.5
    0.1443              -29.54          39.32          36.46          67.93         -13.09         -2.888         -50.55          1.705          133.8          22.59           37.9
    0.1479              -29.89          39.27          36.46          67.69         -13.02         -2.829         -49.92          1.804          132.9          23.35           38.4
    0.1515              -30.34          39.22          36.44          67.39         -12.93         -2.754         -49.13          1.928          131.7          24.29          39.03
